<?xml version="1.0" standalone="no"?>
<!DOCTYPE svg PUBLIC "-//W3C//DTD SVG 20010904//EN"
 "http://www.w3.org/TR/2001/REC-SVG-20010904/DTD/svg10.dtd">
<svg version="1.0" xmlns="http://www.w3.org/2000/svg"
 width="1278.000000pt" height="1280.000000pt" viewBox="0 0 1278.000000 1280.000000"
 preserveAspectRatio="xMidYMid meet">
<metadata>
Created by potrace 1.15, written by Peter Selinger 2001-2017
</metadata>
<g transform="translate(0.000000,1280.000000) scale(0.100000,-0.100000)"
fill="#000000" stroke="none">
<path d="M8593 12788 c-36 -50 -77 -197 -128 -457 -31 -156 -76 -361 -100
-455 -23 -94 -68 -297 -99 -451 -163 -808 -394 -1582 -828 -2780 -85 -234
-237 -572 -517 -1152 -154 -319 -255 -511 -388 -738 -154 -262 -229 -368 -370
-521 -192 -208 -349 -344 -617 -536 -420 -300 -638 -472 -771 -607 -111 -114
-111 -87 0 251 84 257 137 448 172 623 14 70 18 139 18 305 0 236 -11 308 -61
383 -29 44 -90 76 -144 77 -19 0 -151 -23 -292 -52 -142 -28 -261 -49 -264
-45 -3 3 -1 51 5 107 6 55 11 189 11 296 0 170 3 209 24 302 32 142 44 263 51
523 6 248 13 297 60 471 20 70 53 234 75 364 36 215 39 249 34 353 -10 179 7
300 81 585 37 138 87 310 112 381 79 226 142 425 188 590 24 88 58 205 75 260
16 55 46 186 65 290 20 105 53 256 75 337 56 205 52 313 -11 361 -20 14 -35
17 -57 12 -71 -15 -140 -111 -342 -475 -56 -102 -137 -243 -180 -315 -237
-399 -619 -1102 -792 -1455 -44 -91 -118 -235 -164 -320 -149 -279 -450 -909
-574 -1205 -140 -332 -243 -591 -393 -990 -58 -154 -151 -399 -207 -545 -222
-577 -288 -802 -374 -1270 -49 -268 -64 -383 -97 -743 -20 -217 -21 -254 -10
-400 24 -312 77 -526 201 -799 71 -157 97 -201 197 -331 107 -139 168 -178
341 -217 126 -28 188 -50 256 -94 72 -46 73 -70 5 -104 -100 -49 -232 -51
-389 -5 -154 46 -184 53 -280 69 -226 37 -408 35 -565 -6 -293 -77 -587 -201
-732 -308 -165 -123 -314 -302 -378 -457 -37 -89 -48 -102 -104 -119 -94 -28
-337 -129 -360 -150 -23 -20 -51 -74 -51 -96 0 -8 20 -10 63 -5 34 3 142 2
239 -3 153 -8 181 -12 210 -30 18 -12 96 -52 173 -90 77 -38 201 -105 275
-149 161 -96 207 -120 325 -167 121 -49 228 -115 500 -306 416 -294 613 -419
862 -546 201 -103 374 -153 683 -198 495 -72 950 -25 1369 140 132 53 153 52
241 -2 95 -58 374 -105 511 -85 41 6 146 13 234 15 235 6 707 76 990 147 155
38 483 140 599 186 172 68 568 277 729 385 199 134 535 424 807 697 97 97 193
189 213 204 23 18 40 40 44 58 3 16 14 34 25 40 10 5 44 45 75 87 31 42 120
142 198 222 265 270 496 524 729 800 127 151 286 337 354 415 120 137 620 766
759 955 38 52 117 167 174 255 58 88 166 241 240 340 303 408 631 944 900
1472 127 250 243 572 256 710 6 68 -9 148 -34 176 -44 48 -128 -16 -268 -208
-32 -44 -103 -126 -158 -184 -113 -119 -289 -323 -399 -462 -74 -94 -128 -146
-298 -289 -47 -39 -166 -151 -265 -249 -99 -97 -202 -189 -230 -205 -81 -46
-199 -131 -373 -268 -90 -71 -266 -196 -390 -280 -125 -83 -265 -182 -312
-220 -46 -38 -143 -103 -215 -145 -71 -41 -204 -124 -295 -183 -91 -59 -205
-131 -254 -160 -49 -30 -144 -95 -210 -145 -67 -49 -146 -101 -176 -115 -30
-14 -77 -37 -105 -52 -65 -36 -144 -73 -172 -82 l-23 -7 0 133 c0 184 -19 249
-118 412 -20 32 -52 90 -72 130 -25 50 -48 81 -78 103 -93 70 -247 87 -363 40
-36 -15 -71 -27 -77 -27 -15 0 -15 24 -2 70 6 19 31 145 56 280 33 181 43 257
39 292 -8 58 16 135 123 393 105 254 142 329 207 418 32 44 96 146 142 229
114 204 197 329 434 654 214 296 333 447 519 664 64 74 178 209 255 300 289
343 621 714 883 988 149 155 381 403 516 550 134 147 281 303 326 347 45 44
192 199 326 345 134 146 330 357 435 470 105 113 220 245 256 293 71 97 78
130 31 135 -21 3 -47 -12 -110 -60 -125 -95 -292 -237 -503 -428 -104 -95
-251 -222 -325 -284 -74 -61 -211 -186 -305 -277 -93 -92 -224 -213 -290 -270
-66 -57 -178 -155 -250 -218 -132 -116 -413 -343 -766 -618 -107 -83 -249
-198 -317 -256 -67 -57 -150 -119 -185 -137 -109 -57 -320 -183 -375 -222 -28
-21 -98 -61 -155 -88 -58 -28 -131 -73 -170 -105 -66 -54 -156 -105 -187 -105
-9 0 -32 -14 -53 -31 -30 -25 -52 -33 -109 -40 -55 -7 -74 -6 -80 4 -4 6 -24
59 -43 117 -28 85 -35 121 -35 185 0 44 -7 134 -15 200 -19 156 -19 444 -1
555 8 47 28 150 45 230 17 80 44 253 61 385 17 132 73 519 125 860 234 1541
294 2056 255 2159 -10 28 -41 35 -57 14z"/>
</g>
</svg>
