<?xml version="1.0" standalone="no"?>
<!DOCTYPE svg PUBLIC "-//W3C//DTD SVG 20010904//EN"
 "http://www.w3.org/TR/2001/REC-SVG-20010904/DTD/svg10.dtd">
<svg version="1.0" xmlns="http://www.w3.org/2000/svg"
 width="1280.000000pt" height="1117.000000pt" viewBox="0 0 1280.000000 1117.000000"
 preserveAspectRatio="xMidYMid meet">
<metadata>
Created by potrace 1.15, written by Peter Selinger 2001-2017
</metadata>
<g transform="translate(0.000000,1117.000000) scale(0.100000,-0.100000)"
fill="#000000" stroke="none">
<path d="M8425 10519 c-22 -4 -72 -8 -111 -8 -40 -1 -105 -7 -145 -15 -41 -8
-110 -20 -154 -26 -44 -7 -136 -25 -205 -40 -411 -94 -648 -140 -715 -140 -21
0 -66 -4 -99 -9 -75 -12 -174 -26 -331 -47 -330 -44 -623 -126 -840 -237
l-120 -61 -95 0 c-52 0 -138 8 -190 18 -52 9 -119 21 -149 27 -61 10 -323 11
-360 0 -48 -13 -36 -31 22 -31 54 0 86 -17 73 -39 -4 -5 -37 -16 -75 -25 -38
-9 -105 -29 -150 -44 -44 -16 -83 -27 -86 -24 -13 14 -2 33 35 59 22 15 40 33
40 39 0 12 -159 24 -324 24 -108 0 -258 -21 -346 -48 -30 -9 -61 -17 -69 -17
-8 0 -22 -14 -31 -30 -10 -18 -24 -29 -34 -27 -9 2 -15 -3 -14 -10 2 -7 -4
-13 -13 -13 -35 0 -210 -205 -274 -319 -48 -86 -103 -227 -126 -321 -24 -100
-39 -331 -36 -540 3 -204 -15 -267 -126 -450 -21 -33 -37 -66 -37 -72 0 -7 -4
-13 -9 -13 -5 0 -14 -13 -19 -29 -6 -16 -26 -52 -46 -80 -73 -103 -89 -153
-94 -286 -4 -119 -3 -122 36 -240 39 -117 60 -206 81 -350 6 -38 15 -100 21
-136 5 -36 10 -133 10 -215 0 -131 -4 -163 -29 -266 -63 -253 -181 -401 -373
-468 -114 -40 -194 -52 -379 -57 l-155 -5 -160 41 c-352 91 -514 178 -701 374
-148 156 -231 317 -264 515 -6 37 -17 76 -24 87 -18 30 -29 293 -13 312 7 9
12 40 10 79 -1 35 3 66 8 69 6 3 10 33 10 67 0 55 2 60 20 55 11 -3 22 -2 25
3 3 4 16 61 30 126 14 66 31 146 39 179 66 287 85 418 93 621 9 251 -20 403
-99 526 -39 61 -264 298 -340 359 l-37 30 -50 -50 c-67 -67 -110 -92 -206
-124 -64 -22 -99 -27 -175 -27 -52 0 -111 4 -130 9 -77 20 -90 21 -90 10 0 -6
31 -60 68 -119 38 -60 86 -147 108 -195 29 -64 44 -87 61 -91 18 -5 23 -13 23
-40 0 -19 5 -34 10 -34 6 0 10 -22 10 -49 0 -28 4 -52 9 -55 4 -3 11 -28 13
-55 3 -27 12 -57 21 -66 30 -29 13 -154 -27 -215 -22 -32 -33 -77 -52 -210
-11 -80 -52 -282 -84 -415 -78 -325 -104 -504 -104 -715 0 -549 194 -1027 563
-1389 371 -364 656 -578 975 -732 286 -138 467 -181 766 -183 225 -1 390 13
620 53 201 34 296 60 482 132 222 84 294 127 406 243 58 60 126 144 167 206
79 121 83 126 91 118 3 -4 10 -75 15 -160 5 -84 14 -189 19 -233 6 -44 14
-126 20 -183 18 -197 23 -195 180 65 105 174 140 222 219 305 133 139 197 174
548 297 92 32 175 62 183 65 17 7 18 4 60 -284 74 -513 107 -650 305 -1260
106 -325 192 -599 225 -715 63 -219 216 -716 326 -1060 106 -332 114 -365 114
-472 0 -162 -35 -219 -248 -402 -90 -77 -122 -143 -122 -255 0 -80 2 -87 33
-128 24 -32 56 -55 121 -88 l88 -45 178 -5 c149 -4 181 -8 197 -22 10 -9 44
-24 76 -32 32 -8 91 -26 133 -40 145 -49 227 -58 463 -53 377 9 455 28 555
132 75 77 80 120 36 295 -56 219 -73 387 -86 855 -4 164 -2 276 11 440 10 121
21 272 26 335 4 63 12 153 18 200 5 47 13 112 16 145 3 33 15 107 25 165 10
58 26 152 35 210 9 58 25 146 35 195 10 50 24 117 30 150 23 121 34 163 75
300 60 197 60 197 92 193 25 -3 28 -9 64 -148 57 -225 72 -349 65 -553 -8
-227 -22 -444 -36 -537 -6 -41 -15 -142 -20 -225 -19 -313 -60 -560 -131 -783
-33 -106 -33 -99 -25 -247 l6 -109 41 -42 c23 -24 67 -54 98 -68 55 -24 60
-25 331 -26 267 -2 340 5 340 31 0 5 -25 9 -57 9 -46 0 -65 6 -105 31 -71 46
-77 98 -11 99 12 0 35 14 51 31 26 28 28 36 24 80 -4 47 -4 49 21 49 14 0 49
-5 77 -11 45 -10 50 -13 50 -38 0 -40 25 -69 63 -73 29 -3 32 -6 29 -32 -2
-16 -13 -44 -23 -64 -35 -61 10 -65 79 -7 63 52 67 71 65 260 -1 127 -8 199
-24 285 -19 101 -22 159 -26 470 -4 240 -1 382 7 440 61 448 100 634 245 1165
100 369 141 469 224 552 75 74 124 78 136 10 8 -43 -2 -706 -14 -897 -4 -80
-13 -242 -20 -360 -11 -217 -20 -316 -47 -535 -8 -66 -19 -158 -25 -205 -19
-178 -28 -247 -38 -298 -6 -30 -18 -142 -26 -250 -19 -247 -29 -305 -66 -414
-27 -77 -30 -96 -24 -155 12 -122 19 -135 101 -209 83 -75 80 -74 271 -90 77
-6 84 -5 128 20 l46 27 148 -7 149 -7 45 42 c25 23 52 57 61 75 27 57 22 101
-50 481 -21 116 -24 157 -24 381 0 250 7 371 35 579 8 61 19 155 26 210 12
111 104 481 150 608 16 45 47 132 69 192 60 168 77 209 88 213 5 1 13 -21 17
-50 6 -51 27 -129 102 -382 45 -152 55 -176 146 -332 153 -265 167 -305 176
-508 4 -102 10 -151 18 -153 23 -8 102 78 138 150 31 63 35 78 35 151 0 72 -4
90 -34 151 -37 76 -87 130 -182 197 -71 50 -109 91 -154 168 -84 143 -150 450
-150 698 1 141 -3 127 105 407 89 231 183 498 221 625 19 63 43 142 54 175 75
229 249 1001 280 1240 7 50 21 137 32 194 18 94 19 134 15 475 -5 411 1 367
-91 746 -43 180 -75 276 -125 384 -83 178 -166 282 -461 576 -244 244 -441
410 -669 563 -125 83 -356 227 -366 227 -3 0 -33 17 -68 39 -35 21 -73 42 -86
46 -12 4 -77 33 -144 64 -202 95 -394 167 -742 278 -435 140 -520 157 -640
132z"/>
</g>
</svg>
