<?xml version="1.0" standalone="no"?>
<!DOCTYPE svg PUBLIC "-//W3C//DTD SVG 20010904//EN"
 "http://www.w3.org/TR/2001/REC-SVG-20010904/DTD/svg10.dtd">
<svg version="1.0" xmlns="http://www.w3.org/2000/svg"
 width="1280.000000pt" height="718.000000pt" viewBox="0 0 1280.000000 718.000000"
 preserveAspectRatio="xMidYMid meet">
<metadata>
Created by potrace 1.15, written by Peter Selinger 2001-2017
</metadata>
<g transform="translate(0.000000,718.000000) scale(0.100000,-0.100000)"
fill="#000000" stroke="none">
<path d="M4099 7133 c-24 -26 -67 -86 -93 -132 l-49 -83 1 -107 c1 -58 5 -121
8 -138 4 -21 2 -33 -5 -33 -6 0 -11 -9 -11 -19 0 -45 -9 -51 -46 -29 -37 22
-43 15 -18 -20 18 -26 17 -26 -31 -6 -20 8 -39 13 -42 11 -2 -3 10 -21 27 -41
34 -38 31 -44 -10 -21 -37 21 -46 18 -22 -8 23 -24 29 -61 13 -71 -5 -4 -19
10 -31 29 -12 19 -24 35 -27 35 -2 0 -2 -19 2 -42 l7 -43 -22 28 c-27 34 -43
35 -30 2 14 -37 -2 -30 -36 15 -16 22 -32 40 -36 40 -4 0 -1 -21 7 -47 8 -26
13 -49 11 -51 -2 -2 -14 15 -27 38 -19 33 -25 38 -29 24 -6 -15 -10 -13 -25
14 -19 32 -38 44 -31 20 3 -7 7 -29 10 -48 l6 -34 -31 29 c-31 29 -32 29 -26
6 l6 -23 -25 23 -24 22 0 -28 0 -29 -30 29 c-28 27 -45 24 -18 -3 22 -22 2
-21 -65 3 -37 14 -71 25 -75 25 -5 0 -6 -17 -4 -37 l4 -38 -23 21 c-33 29 -54
41 -44 24 5 -8 -8 -1 -28 14 l-37 28 0 -56 c0 -31 -3 -56 -7 -56 -4 0 -27 19
-51 43 l-43 42 16 -44 c8 -24 14 -45 13 -46 -2 -2 -33 14 -70 36 -38 21 -68
36 -68 33 0 -2 13 -25 29 -51 17 -26 28 -49 27 -51 -2 -1 -42 15 -90 37 -95
44 -94 45 -39 -43 26 -41 26 -41 -57 14 -30 20 -61 40 -69 45 -13 8 -1 -17 47
-92 8 -13 12 -23 9 -23 -3 0 -44 14 -90 30 -47 17 -88 30 -91 30 -4 0 1 -14 9
-31 9 -17 15 -33 13 -35 -3 -2 -20 7 -38 21 -19 14 -36 25 -38 25 -2 0 19 -26
47 -57 27 -32 49 -59 47 -60 -1 -1 -46 11 -101 27 -157 48 -163 40 -25 -35 47
-25 76 -44 65 -41 -11 3 -53 14 -94 25 -41 12 -76 19 -78 17 -2 -2 21 -25 51
-52 31 -26 55 -49 53 -50 -1 -1 -40 6 -87 17 -125 27 -131 26 -89 -17 l34 -37
-105 6 c-117 7 -117 6 1 -28 l84 -23 -130 -2 -130 -1 35 -19 35 -19 -125 -1
-125 -2 68 -18 c38 -10 71 -21 74 -24 4 -3 -43 -6 -103 -7 -105 -1 -107 -1
-64 -13 79 -22 77 -26 -12 -23 -48 2 -86 2 -84 0 2 -2 23 -10 47 -17 l44 -14
-92 -1 -91 -1 -95 -92 c-163 -160 -271 -350 -396 -700 -83 -231 -119 -350
-130 -433 -8 -58 3 -1177 13 -1340 6 -94 28 -194 141 -645 l84 -335 -19 -91
c-31 -157 -102 -362 -130 -379 -5 -3 -23 41 -40 97 -17 57 -72 229 -121 383
-50 154 -103 321 -119 370 -86 267 -183 637 -215 818 -10 54 -19 96 -21 94 -2
-2 1 -39 6 -83 64 -522 145 -1388 180 -1929 21 -319 27 -775 11 -775 -5 0 -41
34 -79 75 -51 54 -84 103 -122 178 -36 70 -50 91 -46 67 4 -19 9 -141 13 -270
l6 -235 -46 44 c-49 47 -111 160 -122 223 -8 42 -25 42 -25 0 -1 -15 -18 -93
-39 -175 l-38 -147 68 -128 c36 -71 107 -195 156 -278 l89 -149 5259 0 c2893
0 5471 4 5728 9 l469 8 33 52 c198 311 466 869 605 1264 l33 92 -17 148 c-9
81 -23 230 -31 332 -17 201 -32 297 -45 284 -9 -9 -34 -116 -121 -519 -27
-126 -53 -233 -58 -238 -11 -11 -17 37 -31 258 -10 152 -48 559 -53 579 -2 5
-11 -64 -21 -155 -65 -614 -127 -1004 -163 -1016 -32 -11 -53 288 -53 761 0
181 -2 327 -4 325 -3 -3 -10 -36 -16 -74 -6 -39 -29 -144 -51 -235 -22 -91
-43 -189 -46 -218 -3 -29 -7 -51 -9 -49 -2 2 -15 71 -29 153 -61 357 -145 658
-234 846 l-40 83 5 -85 c3 -47 17 -167 30 -267 49 -370 27 -433 -145 -420 -42
3 -89 9 -105 13 -25 6 -28 4 -23 -10 4 -9 12 -77 19 -152 11 -129 4 -373 -21
-739 l-6 -90 -18 143 c-21 174 -58 584 -92 1032 -35 464 -37 483 -45 498 -10
20 -20 -278 -20 -606 l0 -285 -31 61 c-35 72 -59 90 -81 64 -25 -28 -26 -32
-93 -279 -72 -261 -164 -558 -171 -551 -2 3 3 115 11 249 33 534 21 629 -129
994 l-46 110 2 -465 c2 -334 -1 -480 -10 -519 -7 -30 -14 -57 -17 -59 -13 -14
-58 23 -95 78 -50 74 -129 231 -163 325 -33 92 -44 209 -57 586 -5 167 -12
350 -14 407 -2 56 0 102 5 102 4 0 2 19 -5 43 -7 23 -16 53 -20 67 l-7 25 21
-25 21 -25 -7 30 c-4 17 -13 55 -20 85 -18 69 -18 78 1 54 20 -26 19 -7 -5 61
-24 69 -24 65 -5 65 19 0 19 5 0 65 -19 63 -13 69 10 10 9 -26 19 -45 21 -43
1 2 -3 43 -10 91 -7 48 -11 87 -8 87 2 0 13 -12 25 -26 17 -23 21 -24 29 -10
11 19 26 12 38 -18 8 -21 8 -21 17 3 l9 24 13 -32 c16 -38 29 -40 33 -3 l3 27
25 -40 25 -40 5 35 6 35 17 -32 c23 -44 30 -41 25 7 -2 22 -1 40 2 40 4 0 16
-13 28 -30 30 -40 42 -38 42 7 0 35 1 36 15 17 14 -19 14 -19 15 1 1 11 4 14
7 8 8 -21 22 -15 16 7 -7 27 12 25 31 -2 16 -22 16 -22 16 10 0 17 1 32 3 32
2 0 31 -11 65 -25 34 -14 64 -25 67 -25 4 0 3 21 -1 46 l-6 45 37 -15 c51 -22
58 -20 39 9 -9 14 -14 28 -11 32 4 3 9 -2 13 -11 11 -28 27 -18 22 14 -5 36 3
38 26 8 17 -23 17 -23 13 10 -4 36 0 40 19 14 12 -15 13 -14 14 11 0 30 3 32
31 17 10 -6 19 -7 19 -3 0 4 9 19 19 32 l19 25 24 -29 c21 -24 27 -26 46 -16
18 10 23 7 38 -18 10 -16 29 -35 43 -41 55 -25 198 -120 230 -154 23 -24 44
-36 62 -36 18 0 30 -6 33 -18 9 -26 152 -72 228 -72 85 0 199 28 254 62 70 44
199 152 220 182 15 23 14 27 -2 56 -10 16 -22 30 -26 30 -4 0 -8 8 -8 18 0 44
-34 126 -96 227 -79 131 -116 204 -137 270 -19 63 -32 220 -19 229 6 3 27 49
48 102 30 76 46 102 76 126 31 24 42 43 59 100 21 67 21 73 6 176 -12 85 -26
132 -67 227 -28 66 -64 141 -81 166 -35 55 -35 59 -8 59 15 0 19 5 15 15 -3 9
0 15 10 15 11 0 13 6 9 21 -4 13 -3 19 2 16 6 -4 9 16 7 52 -3 48 0 61 16 76
11 10 20 28 20 40 0 13 10 29 22 37 12 8 22 25 24 39 1 13 20 74 42 134 33 93
47 119 92 168 48 53 52 60 42 82 -13 27 -35 31 -79 14 -15 -6 -71 -19 -124
-30 -53 -10 -153 -37 -221 -59 -68 -22 -154 -46 -190 -53 l-67 -14 -27 28 -28
29 -21 -20 c-27 -25 -35 -25 -35 0 0 24 -8 25 -32 3 -17 -15 -18 -15 -19 8 l0
24 -11 -22 c-18 -37 -28 -26 -28 29 l0 52 -30 -29 -30 -29 0 30 -1 29 -17 -30
c-16 -29 -17 -29 -20 -7 -3 19 -6 21 -18 12 -11 -10 -16 -7 -26 15 l-12 27
-22 -27 -22 -28 -7 33 -7 32 -28 -27 -28 -27 -7 43 c-7 39 -9 41 -21 24 -14
-19 -15 -18 -27 25 -2 10 -9 4 -21 -17 -21 -41 -30 -42 -24 -3 6 37 0 38 -29
3 l-23 -28 5 70 6 70 -22 -55 c-23 -59 -39 -83 -39 -60 0 8 -5 33 -11 55 l-11
39 -14 -32 c-16 -38 -28 -42 -22 -7 7 33 -5 32 -19 -2 l-10 -28 -13 34 -13 34
-14 -27 c-18 -35 -24 -33 -17 7 l5 32 -23 -27 c-13 -16 -27 -28 -30 -28 -4 0
-12 16 -18 35 -14 42 -23 44 -36 8 l-10 -28 -29 45 -28 45 -12 -29 -12 -29
-18 54 -18 54 -14 -33 -13 -32 -56 37 c-47 31 -59 35 -74 25 -23 -14 -27 -8
-37 49 l-7 44 -11 -39 -11 -39 -19 89 c-23 116 -37 138 -29 49 l6 -70 -26 30
-25 30 -1 -30 c-1 -23 -8 -11 -30 50 -23 68 -28 76 -31 50 -4 -28 -6 -26 -43
38 -22 37 -42 67 -45 67 -3 0 -5 -21 -4 -47 2 -46 1 -45 -11 17 l-14 65 -1
-100 -2 -100 -45 88 c-24 48 -46 87 -49 87 -3 0 -3 -26 0 -57 l6 -58 -30 79
c-17 43 -33 82 -37 85 -3 3 -5 -15 -3 -41 3 -27 1 -48 -2 -48 -3 0 -14 18 -24
40 -28 61 -37 60 -33 -4 1 -31 1 -56 -2 -56 -3 0 -14 21 -25 48 l-20 47 -5
-35 -5 -35 -41 38 c-43 38 -54 36 -54 -11 -1 -44 -16 -45 -82 -8 l-65 36 5
-33 5 -32 -34 42 c-19 23 -37 42 -40 42 -4 1 -10 -28 -14 -64 -3 -36 -9 -65
-11 -65 -3 0 -36 25 -73 55 -38 30 -72 55 -76 55 -4 0 -5 -20 -3 -45 2 -25 1
-45 -2 -45 -2 0 -23 18 -46 41 l-41 40 -7 -40 c-3 -23 -12 -41 -19 -41 -6 0
-51 7 -100 16 -87 16 -87 16 -105 -5 -19 -25 -108 -64 -197 -87 -33 -9 -68
-24 -78 -35 -10 -10 -29 -19 -43 -19 -13 0 -73 -16 -132 -34 -59 -19 -138 -40
-177 -46 -38 -7 -212 -44 -385 -83 l-315 -72 -141 3 c-160 4 -200 -3 -268 -52
-27 -19 -65 -37 -85 -40 -58 -10 -271 -79 -271 -88 0 -4 21 -9 48 -9 37 -1 25
-5 -62 -20 -60 -10 -110 -20 -113 -22 -2 -3 38 -13 89 -23 101 -21 102 -20
-82 -32 -111 -7 -114 -8 -87 -23 l29 -15 -69 -31 c-72 -32 -178 -111 -292
-218 -84 -80 -143 -187 -217 -395 -26 -74 -63 -157 -81 -185 -18 -27 -33 -53
-33 -57 0 -5 14 -14 31 -21 l31 -12 -21 -27 c-25 -31 -26 -39 -6 -32 20 8 19
1 -7 -49 -21 -40 -84 -232 -95 -290 -3 -17 -39 -61 -91 -114 -77 -79 -103
-114 -196 -262 l-28 -43 41 7 c44 7 47 5 29 -25 -10 -15 -9 -23 7 -40 18 -20
18 -24 2 -112 -13 -75 -23 -101 -54 -145 -74 -106 -70 -98 -53 -88 8 4 -17
-25 -56 -66 -69 -73 -209 -249 -186 -235 20 12 14 -1 -41 -81 -30 -43 -59 -93
-65 -111 l-11 -32 36 27 36 27 -33 -59 c-33 -59 -33 -60 -7 -36 31 28 33 21
12 -39 -8 -24 -13 -45 -10 -48 3 -3 19 7 35 23 35 34 38 28 10 -17 -26 -42
-26 -56 0 -33 20 18 20 17 20 -361 -1 -427 1 -421 -67 -219 -90 266 -158 595
-202 980 -40 344 -40 345 -38 -146 2 -342 -1 -462 -9 -451 -38 52 -71 -47
-119 -358 -49 -314 -69 -386 -100 -360 -31 26 -45 121 -135 918 -74 665 -99
853 -116 884 -2 3 -39 -13 -81 -36 l-78 -41 0 -60 c1 -33 7 -127 15 -208 15
-171 7 -201 -33 -121 -57 115 -61 140 -49 280 7 71 12 202 12 291 0 283 36
468 145 733 81 199 139 305 211 385 43 48 75 75 88 75 12 0 38 11 58 25 60 41
101 44 457 38 l336 -6 55 24 c76 32 170 89 183 111 7 10 16 18 22 18 22 0 86
64 121 121 l36 61 -43 45 c-51 51 -106 83 -146 83 -16 0 -49 15 -78 36 -28 19
-125 73 -216 120 -134 68 -180 96 -236 149 -61 56 -72 72 -87 123 -9 32 -32
85 -52 118 -56 92 -74 131 -75 161 -1 17 -3 21 -6 11 -6 -24 -23 -23 -23 1 0
11 -4 23 -10 26 -5 3 -10 1 -10 -4 0 -20 -15 -11 -80 48 -68 61 -131 97 -240
138 -36 14 -85 37 -111 52 -25 16 -55 31 -66 35 -12 4 -36 24 -54 44 -18 20
-35 35 -37 32 -3 -3 -9 6 -15 20 l-10 25 -6 -23 -6 -24 -21 24 c-11 13 -35 47
-53 77 -56 93 -110 160 -151 187 -34 23 -42 25 -56 13 -9 -7 -20 -23 -25 -36
-5 -13 -12 -23 -16 -22 -5 0 -34 34 -65 74 -60 77 -86 99 -129 110 -21 5 -32
-2 -70 -42z m-119 -2927 c102 -26 136 -38 142 -52 13 -34 77 -336 99 -474 15
-94 22 -186 23 -302 1 -92 1 -166 0 -165 -1 1 -28 80 -59 176 -64 195 -108
301 -126 301 -20 0 -4 -228 40 -575 67 -515 102 -858 88 -845 -2 3 -17 50 -32
105 -114 425 -230 808 -263 870 l-16 30 -7 -30 c-7 -35 -5 -76 21 -375 41
-468 65 -883 50 -845 -5 11 -38 163 -75 338 l-67 318 5 377 c3 320 7 402 27
542 23 172 30 420 15 568 -4 40 -5 72 -4 72 2 -1 65 -16 139 -34z m-571 -133
c14 -37 61 -556 61 -681 0 -53 7 -137 15 -187 21 -124 45 -384 44 -480 l0 -80
-18 63 c-35 122 -46 99 -46 -98 0 -87 -3 -156 -7 -153 -5 2 -8 10 -8 18 0 26
-88 307 -100 318 -9 9 -11 -32 -8 -186 2 -109 0 -190 -4 -180 -3 10 -19 82
-34 160 -15 79 -28 142 -30 140 -1 -1 1 -98 5 -215 l6 -212 -30 0 -30 0 -79
393 -78 393 12 115 c6 63 20 155 30 204 29 142 32 202 17 309 -21 143 -4 186
97 251 28 18 76 56 106 84 30 27 58 50 61 51 4 0 11 -12 18 -27z m3360 -682
c27 -49 111 -486 111 -574 0 -47 -3 -53 -53 -101 -29 -28 -73 -67 -98 -87 -24
-20 -62 -61 -82 -90 -34 -50 -39 -67 -64 -217 -15 -89 -30 -162 -33 -162 -3 0
-13 20 -23 44 -10 24 -25 52 -33 62 -14 17 -15 11 -10 -71 3 -49 15 -193 26
-320 20 -222 19 -389 -1 -340 -18 43 -68 326 -79 440 -27 301 -69 498 -127
596 -30 50 -120 154 -111 128 96 -268 196 -732 213 -984 3 -49 8 -116 11 -148
8 -86 -9 -65 -50 61 -45 140 -113 449 -205 938 -34 175 -36 197 -16 144 l13
-35 7 55 8 54 39 -44 40 -45 -7 40 c-3 22 -8 50 -11 63 -6 30 2 28 19 -5 l15
-27 25 50 25 49 11 -28 c6 -16 12 -34 13 -40 1 -7 4 22 7 63 l6 75 17 -35 16
-35 2 65 c2 71 18 59 19 -15 2 -78 21 -12 22 75 l0 85 35 -100 34 -100 -5 80
c-10 173 -14 299 -9 285 2 -8 11 -60 18 -115 l14 -100 2 150 3 150 15 -170
c17 -195 30 -195 32 0 2 138 11 137 28 -5 l10 -75 -2 83 c-1 93 8 108 18 30
14 -111 29 -173 37 -152 4 10 8 39 9 64 1 36 3 41 11 25 6 -14 8 -3 3 35 -7
72 3 59 26 -31 l18 -74 1 48 c1 26 6 47 11 47 6 0 10 15 10 33 0 19 -3 27 -8
20 -5 -8 -17 25 -31 83 -13 53 -19 99 -15 104 8 7 31 15 56 19 4 0 12 -7 17
-18z m1307 -21 c-3 -22 -4 -40 -1 -40 3 0 12 18 21 40 18 43 34 53 34 19 0
-16 4 -19 18 -14 39 16 47 11 61 -45 13 -52 7 -133 -15 -225 -5 -18 -3 -18 15
4 22 25 27 17 12 -21 -4 -13 -11 -36 -15 -51 l-7 -29 31 22 c36 25 36 25 10
-32 -16 -38 -18 -53 -10 -109 12 -87 36 -564 33 -669 -2 -68 -11 -108 -42
-200 -21 -63 -41 -108 -44 -100 -3 8 -44 182 -92 385 -88 380 -106 446 -99
365 5 -53 41 -654 49 -825 3 -66 8 -130 11 -142 4 -19 -2 -24 -38 -33 -142
-36 -230 -85 -266 -148 -11 -20 -33 -84 -48 -142 -27 -107 -80 -224 -115 -256
-23 -20 -16 -36 -73 176 -24 91 -83 310 -131 488 l-87 322 21 128 c12 70 35
170 53 222 l31 95 106 104 c58 58 139 129 178 158 97 71 110 87 145 162 17 36
63 126 104 202 41 75 79 152 85 170 12 37 34 59 57 59 11 0 13 -9 8 -40z
m-5570 -625 c23 -248 29 -658 14 -915 -6 -112 -14 -209 -18 -214 -12 -20 -104
402 -177 812 -31 178 -35 211 -27 275 5 39 10 59 12 42 1 -16 6 -41 11 -55 5
-15 6 30 3 115 l-5 140 35 -70 35 -70 1 140 2 140 19 -75 c10 -41 18 -85 19
-97 0 -13 5 -23 10 -23 6 0 10 24 10 53 0 28 6 142 12 252 l13 200 7 -230 c4
-126 14 -315 24 -420z m7193 331 l1 -148 25 6 c34 9 65 -34 127 -170 58 -127
74 -176 83 -259 7 -54 8 -57 18 -35 9 22 11 18 18 -40 5 -36 16 -105 24 -155
8 -49 31 -250 50 -445 19 -195 37 -375 40 -400 10 -91 -6 -19 -55 250 -51 275
-118 601 -126 609 -17 17 -10 -70 51 -628 25 -228 44 -421 42 -430 -3 -9 -5
-6 -6 8 -1 32 -174 892 -178 888 -1 -2 6 -64 17 -138 11 -74 20 -161 20 -194
1 -33 22 -168 49 -300 26 -132 47 -242 45 -243 -4 -5 -77 226 -179 565 -45
150 -84 276 -87 279 -4 3 -4 -12 -2 -33 7 -58 44 -678 43 -715 0 -18 -13 26
-29 97 -16 72 -39 180 -53 240 l-24 110 -4 -262 c-4 -241 -8 -287 -25 -270 -3
3 -23 115 -44 249 -69 437 -108 638 -124 638 -5 0 -7 -143 -4 -342 l5 -343
-73 482 c-95 637 -173 1120 -184 1146 -12 28 -10 3 45 -603 68 -751 106 -1249
104 -1375 l0 -50 -30 65 c-84 181 -221 562 -250 695 l-13 60 -18 -155 c-9 -86
-43 -282 -77 -440 -60 -287 -91 -481 -91 -574 l0 -51 -75 152 c-116 233 -265
446 -409 584 l-49 47 71 36 c55 27 81 48 111 88 59 80 137 224 170 313 26 73
29 97 35 257 10 262 51 651 82 771 26 103 82 246 111 284 l28 37 5 -45 5 -44
23 43 c27 51 35 53 30 7 -5 -45 4 -44 39 2 l28 37 5 -31 5 -31 94 39 c51 21
97 39 102 39 5 0 4 -12 -2 -26 -5 -15 -8 -29 -5 -31 2 -2 49 19 105 46 55 28
103 51 106 51 3 0 5 -11 5 -26 l0 -25 33 25 c42 32 47 32 47 1 l0 -25 40 20
c49 25 50 25 50 -2 0 -21 2 -21 33 10 l32 33 7 -38 c4 -21 7 -105 7 -187z
m-7770 -468 c8 40 18 69 21 65 38 -42 70 -497 52 -740 -7 -95 -17 -155 -31
-194 -21 -54 -64 -109 -74 -92 -2 4 -10 53 -17 108 -10 83 -10 137 1 300 17
245 16 327 -5 384 -22 59 -21 217 1 335 l18 91 10 -165 10 -165 14 73z m3844
143 c-20 -34 -33 -40 -33 -15 0 14 41 56 48 49 1 -1 -5 -16 -15 -34z m46 -32
c-11 -28 -18 -54 -15 -56 8 -9 47 18 83 58 35 39 36 39 109 39 l73 0 -21 -37
c-12 -21 -33 -54 -47 -73 -17 -24 -4 -15 42 29 45 44 68 60 71 50 2 -8 11 -63
20 -124 36 -255 216 -1492 221 -1515 2 -15 -4 -8 -16 18 -11 24 -34 108 -49
187 -16 79 -63 262 -104 407 -80 280 -149 553 -162 634 -4 27 -9 44 -11 38 -2
-6 12 -148 31 -315 53 -458 78 -726 66 -712 -4 4 -28 67 -55 138 -54 147 -77
196 -112 243 -30 40 -43 34 -44 -21 -1 -53 -123 731 -145 931 l-7 63 39 34
c22 19 42 34 46 35 3 0 -3 -23 -13 -51z m-3559 -436 c0 -196 -2 -354 -4 -352
-3 2 -16 92 -31 199 -14 107 -30 204 -35 215 -6 14 -8 7 -5 -25 7 -77 16 -424
10 -419 -2 3 -10 104 -16 224 -10 176 -9 245 1 349 15 143 17 142 47 -19 l18
-100 3 143 c5 266 12 143 12 -215z m-137 161 c22 -82 26 -112 20 -165 l-7 -64
-28 110 c-26 104 -39 251 -20 230 5 -6 21 -55 35 -111z m853 -236 c-9 -124
-35 -331 -47 -365 -7 -23 -8 -20 -4 17 14 148 49 440 53 440 3 0 2 -42 -2 -92z
m7204 -530 c48 -146 48 -147 23 -218 -3 -8 -21 63 -39 159 -18 95 -36 183 -40
195 -4 11 -3 18 1 14 5 -5 29 -72 55 -150z m-453 -390 c-3 -8 -6 -5 -6 6 -1
11 2 17 5 13 3 -3 4 -12 1 -19z m282 -191 c13 -13 15 -111 2 -103 -5 3 -17 41
-26 83 -10 43 -19 84 -21 93 -3 8 4 -2 14 -23 11 -21 24 -43 31 -50z m-8297
-437 c2 -43 0 -76 -3 -72 -10 11 -17 152 -8 152 4 0 9 -36 11 -80z"/>
<path d="M175 1778 c-16 -39 -57 -202 -76 -298 -15 -79 -18 -75 -64 120 l-34
145 0 -161 c-1 -151 1 -165 28 -245 34 -100 135 -352 186 -464 l36 -80 -6 140
c-3 77 -10 285 -15 463 -10 326 -15 398 -32 408 -4 3 -15 -10 -23 -28z"/>
</g>
</svg>
