<?xml version="1.0" standalone="no"?>
<!DOCTYPE svg PUBLIC "-//W3C//DTD SVG 20010904//EN"
 "http://www.w3.org/TR/2001/REC-SVG-20010904/DTD/svg10.dtd">
<svg version="1.0" xmlns="http://www.w3.org/2000/svg"
 width="1273.000000pt" height="1280.000000pt" viewBox="0 0 1273.000000 1280.000000"
 preserveAspectRatio="xMidYMid meet">
<metadata>
Created by potrace 1.15, written by Peter Selinger 2001-2017
</metadata>
<g transform="translate(0.000000,1280.000000) scale(0.100000,-0.100000)"
fill="#000000" stroke="none">
<path d="M12710 12770 c0 -16 5 -30 10 -30 6 0 10 14 10 30 0 17 -4 30 -10 30
-5 0 -10 -13 -10 -30z"/>
<path d="M685 12709 c-27 -5 -74 -6 -102 -3 -40 5 -59 2 -78 -10 -13 -9 -41
-16 -63 -16 -27 0 -47 -8 -72 -30 -19 -16 -40 -29 -46 -30 -6 0 -35 -22 -64
-50 -29 -27 -57 -50 -61 -50 -4 0 -15 -13 -24 -28 -10 -16 -26 -32 -38 -38
-11 -5 -28 -23 -38 -40 -20 -37 -41 -175 -28 -188 12 -14 11 -96 -1 -96 -5 0
-10 5 -10 10 0 6 -5 10 -11 10 -7 0 -8 -11 -4 -30 5 -22 1 -39 -14 -64 -21
-33 -21 -89 0 -102 5 -3 9 -21 9 -40 0 -19 5 -34 10 -34 6 0 10 -9 10 -20 0
-11 5 -20 10 -20 6 0 10 -10 10 -23 0 -13 9 -33 20 -45 14 -15 20 -35 20 -69
0 -45 31 -147 51 -168 5 -5 9 -16 9 -25 0 -9 8 -25 18 -36 16 -18 32 -49 51
-96 4 -13 18 -43 30 -66 11 -24 21 -52 21 -62 0 -11 5 -22 10 -25 6 -3 10 -17
10 -30 0 -13 5 -27 10 -30 6 -3 10 -17 10 -31 0 -14 9 -34 20 -46 11 -12 20
-30 20 -39 0 -10 5 -21 10 -24 6 -3 10 -15 10 -26 0 -10 5 -29 12 -42 24 -48
28 -57 28 -76 0 -11 5 -23 10 -26 6 -3 10 -22 10 -40 0 -38 17 -120 31 -147 5
-10 9 -27 9 -37 0 -22 16 -63 40 -101 20 -32 40 -90 40 -117 0 -12 4 -32 9
-45 5 -13 19 -57 31 -98 12 -41 26 -83 31 -92 5 -10 9 -26 9 -36 0 -10 6 -24
12 -30 10 -10 10 -17 0 -32 -17 -28 -15 -60 4 -60 26 0 44 -26 44 -63 0 -20 6
-37 13 -40 9 -3 9 -9 -1 -26 -9 -15 -9 -27 -3 -40 6 -10 8 -34 4 -54 -4 -25 0
-44 11 -61 9 -14 16 -40 16 -59 0 -18 4 -37 9 -43 5 -5 11 -27 14 -49 3 -22
17 -93 31 -159 14 -65 26 -141 26 -167 0 -27 4 -57 9 -67 16 -33 31 -89 31
-120 0 -17 5 -34 10 -37 6 -3 10 -15 10 -25 0 -11 9 -35 20 -55 11 -20 20 -44
20 -53 0 -10 5 -23 11 -29 6 -6 11 -33 11 -59 0 -27 4 -53 8 -59 8 -11 12 -30
34 -185 9 -58 20 -115 26 -128 5 -13 10 -36 10 -52 0 -16 5 -32 10 -35 6 -3
10 -17 10 -31 0 -13 5 -24 10 -24 6 0 10 -15 10 -34 0 -19 5 -38 10 -41 6 -3
10 -16 10 -29 0 -13 8 -30 19 -40 10 -9 29 -38 42 -64 13 -26 30 -53 36 -60 7
-7 13 -17 13 -21 0 -4 35 -44 78 -88 81 -84 162 -144 271 -204 36 -19 83 -45
104 -57 21 -12 44 -22 52 -22 9 0 23 -4 33 -9 9 -5 37 -15 62 -21 25 -7 56
-16 70 -20 14 -5 66 -14 115 -21 50 -6 94 -16 99 -20 6 -5 20 -9 33 -9 12 0
39 -10 60 -22 21 -12 59 -32 86 -45 26 -13 47 -28 47 -34 0 -13 -25 -39 -38
-39 -5 0 -26 -17 -48 -38 -21 -20 -59 -48 -84 -61 -25 -14 -52 -33 -61 -43 -9
-10 -22 -18 -28 -18 -7 0 -21 -9 -33 -20 -12 -11 -28 -20 -35 -20 -7 0 -13 -4
-13 -10 0 -5 -7 -10 -16 -10 -8 0 -33 -18 -54 -40 -21 -22 -43 -40 -50 -40
-13 0 -197 -183 -236 -237 -16 -21 -37 -46 -46 -57 -38 -42 -50 -84 -43 -150
5 -43 3 -76 -6 -102 -13 -39 -67 -126 -82 -132 -19 -9 1 -191 24 -216 5 -6 9
-16 9 -24 0 -8 13 -27 30 -42 16 -15 30 -35 30 -43 0 -9 4 -17 8 -19 30 -12
112 -147 112 -183 0 -13 5 -27 10 -30 12 -7 14 -225 2 -225 -14 0 -45 -84 -53
-145 -5 -33 -11 -76 -15 -96 -8 -48 25 -115 87 -179 27 -28 49 -55 49 -61 0
-6 21 -31 48 -57 26 -26 53 -59 61 -75 8 -15 18 -27 23 -27 4 0 8 -13 8 -30 0
-16 5 -30 10 -30 6 0 10 -10 10 -23 0 -13 6 -29 13 -36 15 -15 13 -214 -3
-219 -5 -2 -10 -12 -10 -22 0 -10 -12 -42 -28 -71 -33 -64 -52 -118 -52 -145
0 -11 -5 -25 -10 -30 -6 -6 -11 -59 -11 -122 0 -61 -4 -114 -9 -117 -13 -8
-13 -95 0 -95 6 0 10 -13 10 -30 0 -38 24 -77 89 -144 28 -30 51 -61 51 -70 0
-9 5 -16 10 -16 6 0 10 -9 10 -20 0 -11 5 -20 10 -20 6 0 10 -9 10 -20 0 -11
5 -20 10 -20 6 0 10 -13 10 -29 0 -16 5 -31 11 -33 15 -5 14 -350 -1 -378 -5
-10 -10 -32 -10 -49 0 -16 -4 -33 -10 -36 -5 -3 -10 -15 -10 -25 0 -11 -9 -35
-20 -55 -14 -24 -20 -54 -20 -95 0 -51 -7 -73 -49 -157 -27 -54 -54 -115 -61
-137 -7 -21 -25 -52 -41 -69 -16 -16 -29 -35 -29 -42 0 -7 -9 -20 -20 -30 -11
-10 -20 -26 -20 -35 0 -9 -21 -43 -47 -76 -27 -32 -54 -71 -62 -87 -8 -15 -18
-27 -23 -27 -4 0 -8 -9 -8 -20 0 -11 -4 -20 -9 -20 -5 0 -13 -9 -16 -20 -3
-11 -12 -26 -19 -32 -6 -7 -19 -29 -28 -48 -9 -20 -28 -49 -42 -65 -14 -17
-26 -35 -26 -40 0 -6 -9 -17 -20 -25 -11 -8 -20 -21 -20 -30 0 -9 -9 -22 -20
-30 -11 -8 -20 -21 -20 -29 0 -7 -8 -21 -18 -30 -9 -9 -28 -33 -42 -53 -14
-21 -28 -38 -32 -38 -5 0 -8 -6 -8 -14 0 -7 -11 -24 -23 -37 -22 -22 -120
-136 -157 -183 -8 -11 -29 -35 -45 -55 -17 -20 -43 -53 -58 -73 -35 -48 -123
-138 -134 -138 -5 0 -19 -9 -31 -20 -16 -15 -20 -27 -15 -50 5 -26 3 -30 -16
-30 -12 0 -21 -6 -21 -15 0 -9 -9 -26 -20 -38 -39 -42 -80 -100 -80 -113 0 -7
-3 -14 -8 -16 -11 -5 -112 -163 -112 -176 0 -5 -9 -17 -20 -27 -11 -10 -20
-21 -20 -26 0 -19 -79 -135 -98 -144 -18 -8 -21 -18 -21 -61 1 -48 -2 -55 -40
-94 -31 -32 -41 -50 -41 -75 0 -19 -5 -35 -11 -37 -14 -5 -17 -128 -4 -148 5
-8 11 -53 12 -99 2 -77 4 -85 30 -107 25 -21 38 -24 111 -24 45 0 82 3 82 8 0
8 49 32 67 32 7 0 13 5 13 10 0 6 7 10 16 10 17 0 84 67 84 84 0 6 16 31 35
55 19 24 35 47 35 52 0 4 18 26 40 49 22 23 47 58 57 78 9 20 32 53 50 72 18
19 36 46 39 60 4 14 19 39 34 55 15 17 33 45 41 63 8 17 17 32 21 32 5 0 8 7
8 15 0 20 47 110 66 126 8 6 14 18 14 25 0 8 4 14 8 14 5 0 19 24 32 53 12 28
28 63 34 77 6 14 26 50 46 80 20 30 42 67 49 83 8 15 18 27 23 27 4 0 8 9 8
20 0 11 3 20 8 20 4 0 12 10 18 23 43 85 81 155 95 170 16 18 24 33 53 98 9
20 22 42 31 49 8 7 15 16 15 21 0 5 8 18 18 29 20 24 65 101 88 150 36 80 53
107 96 154 21 23 38 44 38 49 0 4 5 13 10 20 20 24 130 198 130 205 0 4 9 14
20 22 11 8 20 18 20 23 0 10 50 83 77 112 10 11 31 38 47 59 17 22 32 34 34
28 7 -22 22 -12 22 14 0 24 16 63 29 74 4 3 18 20 31 39 42 61 126 141 147
141 12 0 36 15 54 33 33 31 36 32 113 30 99 -2 201 -21 246 -47 19 -10 53 -29
74 -40 22 -12 51 -33 66 -47 20 -20 40 -28 87 -34 34 -4 66 -4 71 -1 5 3 19
-4 31 -15 l21 -20 38 29 c20 16 51 34 67 40 50 19 140 29 166 19 13 -5 81 -10
150 -10 118 -2 162 6 189 33 3 3 24 16 48 28 24 13 78 58 120 99 42 41 88 80
102 86 14 7 26 20 28 31 4 21 27 51 60 80 13 12 53 48 89 81 36 33 75 66 87
74 11 8 30 26 41 40 11 14 43 50 71 81 72 78 154 203 154 234 0 8 15 40 34 72
19 33 42 75 51 94 9 19 23 46 31 60 64 112 124 253 124 289 0 35 16 83 51 153
5 10 8 39 8 65 -1 27 -4 38 -6 26 -2 -13 -8 -23 -13 -23 -5 0 -16 -21 -23 -47
-17 -58 -37 -69 -37 -19 0 19 4 38 10 41 5 3 9 16 9 28 -1 29 15 74 61 172 21
44 41 89 45 100 7 19 8 18 19 -7 11 -26 12 -26 24 -8 7 11 12 32 12 48 0 15 4
32 9 38 5 5 11 27 15 49 13 96 18 121 25 140 26 66 45 128 57 187 19 96 52
193 90 268 18 36 42 90 54 120 12 30 27 69 35 85 7 17 23 57 36 90 13 33 32
76 43 95 11 19 32 58 46 85 46 85 70 126 111 187 21 33 39 62 39 64 0 9 89
138 131 189 79 97 114 149 159 233 25 47 52 88 59 90 9 3 11 -2 7 -14 -4 -16
-40 -298 -46 -374 -9 -104 -2 -328 13 -419 9 -58 17 -117 17 -133 0 -16 4 -36
9 -46 5 -9 14 -35 21 -57 16 -53 38 -103 50 -110 5 -3 18 -25 28 -48 21 -46
29 -55 85 -86 45 -25 64 -26 104 -6 32 16 62 45 47 45 -4 0 11 20 35 44 l44
45 1 83 c2 85 25 195 54 258 9 19 19 46 22 60 3 14 10 23 15 20 16 -8 5 -121
-16 -169 -11 -24 -17 -51 -14 -60 6 -19 -28 -178 -49 -231 -3 -8 -8 -31 -10
-50 -3 -19 -12 -60 -21 -90 -8 -30 -15 -64 -15 -77 0 -12 -4 -25 -10 -28 -6
-3 -10 -19 -10 -35 0 -15 -14 -59 -32 -97 -17 -37 -32 -71 -32 -75 -1 -4 -7
-13 -13 -20 -7 -6 -13 -23 -13 -35 0 -13 -9 -43 -20 -65 -11 -23 -20 -46 -20
-52 0 -10 -32 -85 -55 -126 -14 -26 -48 -96 -95 -195 -15 -33 -33 -78 -40
-100 -7 -22 -17 -51 -23 -65 -20 -52 -40 -117 -49 -165 -18 -100 -20 -123 -9
-129 13 -9 15 -81 2 -104 -13 -25 4 -116 34 -175 37 -74 55 -248 57 -562 l0
-90 109 -107 c59 -60 113 -108 118 -108 6 0 11 -9 11 -21 0 -42 18 -59 63 -59
33 0 51 -7 80 -31 20 -17 37 -36 37 -43 0 -7 11 -23 24 -35 15 -15 22 -29 18
-43 -2 -11 0 -43 6 -71 6 -29 21 -104 33 -167 12 -63 27 -121 32 -128 6 -8 10
-37 9 -64 0 -28 4 -60 9 -71 6 -10 12 -46 15 -79 2 -33 8 -66 14 -73 5 -6 7
-14 4 -17 -2 -3 2 -66 10 -139 23 -196 33 -415 23 -489 -13 -93 -4 -200 20
-246 10 -22 28 -66 38 -99 9 -33 23 -67 29 -75 7 -8 17 -27 24 -42 6 -15 28
-46 49 -69 21 -23 37 -45 35 -48 -1 -3 8 -8 20 -9 13 -2 28 -8 35 -14 7 -5 18
-6 25 -2 7 5 37 9 66 10 47 1 58 6 92 39 34 33 42 52 53 117 2 9 8 22 14 30 7
9 8 41 3 102 -5 53 -5 99 1 114 7 18 6 29 -4 41 -14 16 -34 105 -44 196 -3 28
-9 55 -14 61 -5 6 -16 36 -25 65 -9 30 -20 59 -24 64 -9 12 -21 74 -25 136 -1
26 -5 51 -9 57 -3 5 -8 79 -11 163 -5 138 -14 204 -46 334 -6 22 -9 63 -8 90
1 28 -6 69 -16 95 -36 94 -59 372 -35 434 5 14 15 26 23 26 7 0 31 18 52 40
21 22 44 40 50 40 6 0 22 12 36 26 13 14 40 32 59 41 19 8 61 28 93 44 32 16
69 29 82 29 13 0 26 4 29 9 5 8 55 14 198 25 59 5 104 26 113 55 3 10 19 31
35 46 26 25 34 28 49 18 17 -10 26 -6 65 34 26 25 44 48 41 51 -3 3 -26 -14
-50 -38 -25 -24 -45 -39 -45 -33 0 6 14 23 30 36 17 14 30 32 30 41 0 8 4 18
10 21 5 3 10 17 10 30 0 13 4 27 10 30 5 3 10 21 10 40 0 19 4 36 9 39 5 3 13
25 19 49 6 24 21 52 32 62 11 10 20 28 20 41 0 13 4 26 10 29 5 3 10 21 11 38
0 18 8 43 17 57 9 14 28 43 40 63 13 20 29 37 34 37 6 0 43 31 82 68 39 37 87
74 106 81 19 7 52 21 73 32 22 10 44 19 51 19 7 0 30 9 52 19 35 17 47 18 123
8 l84 -11 31 35 c18 19 39 33 49 31 9 -2 17 1 17 7 0 6 -4 11 -10 11 -5 0 -10
5 -10 10 0 6 14 10 31 10 27 0 30 2 19 15 -10 12 -10 19 -2 27 7 7 12 18 12
26 0 8 18 51 40 97 22 46 40 87 40 92 0 5 13 24 30 43 16 19 29 40 30 45 0 6
18 29 40 50 22 21 40 44 40 50 0 14 82 95 96 95 6 0 23 14 39 30 16 17 34 30
40 30 7 0 20 9 30 20 9 10 34 25 54 31 20 6 48 20 63 30 14 11 30 19 35 19 5
0 21 13 36 28 23 24 27 36 27 89 0 34 5 65 10 68 6 3 10 17 10 31 0 13 4 32 9
42 5 9 16 33 25 52 16 34 74 118 112 164 20 22 89 77 110 86 6 3 32 23 56 46
54 50 74 106 88 249 6 55 12 114 15 130 5 30 12 93 22 218 6 82 -23 252 -49
282 -4 5 -8 15 -8 21 0 7 -22 60 -50 118 -27 58 -50 110 -50 115 0 29 -217
221 -249 221 -6 0 -11 4 -11 9 0 4 69 11 153 15 221 10 356 22 407 36 25 6 60
14 78 17 18 3 35 9 38 14 3 5 16 9 29 9 13 0 27 4 30 10 3 5 13 10 20 10 8 0
40 12 72 26 32 14 74 33 93 42 19 9 51 28 70 44 19 15 40 28 47 28 15 0 243
225 243 240 0 6 13 24 28 40 26 27 54 77 115 210 12 25 34 60 49 78 15 18 28
42 28 52 0 11 9 25 20 32 11 7 20 21 20 30 0 10 5 18 10 18 6 0 10 8 10 18 0
10 16 34 35 52 35 34 65 82 65 104 0 6 22 40 50 76 27 36 49 70 50 76 0 6 10
19 21 30 12 10 49 59 82 109 34 49 69 99 79 109 10 11 18 24 18 29 0 5 14 22
30 37 17 15 30 32 30 37 0 5 15 23 33 39 44 42 107 113 107 123 0 4 17 24 38
43 20 20 46 48 57 64 18 26 107 126 145 164 9 8 27 31 40 50 14 19 32 44 42
54 10 11 18 24 18 29 0 6 16 26 35 46 51 53 139 162 154 192 7 14 26 41 43 60
16 19 47 59 68 89 50 70 61 83 85 96 10 6 22 17 25 25 4 8 12 24 18 36 7 13
12 30 12 39 0 16 49 93 82 128 10 11 18 27 18 35 0 9 14 32 30 51 16 19 30 46
30 58 0 13 8 36 18 50 10 15 25 43 32 62 7 19 21 46 30 60 8 14 22 39 29 55 7
17 20 41 28 55 8 14 17 33 20 43 3 9 9 17 14 17 5 0 9 16 9 35 0 32 32 112 49
125 4 3 7 24 8 48 0 24 6 49 12 55 6 6 11 23 11 37 0 15 3 30 7 34 4 4 9 25
10 48 2 22 7 46 12 52 9 12 16 51 32 186 24 209 24 200 -12 271 -4 9 -5 26 -2
38 4 16 -1 23 -20 30 -14 5 -28 14 -31 20 -9 13 -65 41 -85 41 -9 0 -36 8 -61
16 -103 37 -176 44 -334 33 -83 -6 -152 -15 -154 -20 -2 -5 -12 -9 -23 -9 -10
0 -19 -4 -19 -10 0 -6 -27 -10 -60 -10 -33 0 -60 -4 -60 -10 0 -5 -22 -10 -48
-10 -27 0 -52 -3 -56 -7 -10 -11 -79 -33 -103 -33 -12 0 -25 -4 -28 -10 -3 -5
-14 -10 -23 -10 -9 0 -28 -9 -42 -20 -14 -11 -35 -20 -48 -20 -23 0 -99 -32
-142 -60 -14 -8 -43 -22 -65 -29 -22 -7 -65 -25 -95 -40 -30 -16 -82 -38 -115
-51 -99 -37 -115 -45 -115 -52 0 -5 -8 -8 -17 -9 -10 0 -36 -11 -58 -24 -22
-13 -56 -31 -75 -40 -19 -9 -44 -22 -55 -28 -26 -14 -81 -40 -122 -58 -18 -8
-33 -17 -33 -21 0 -5 -6 -8 -13 -8 -18 0 -67 -24 -67 -32 0 -5 -9 -8 -20 -8
-11 0 -25 -9 -32 -20 -7 -11 -20 -20 -29 -20 -9 0 -24 -9 -34 -20 -10 -11 -29
-20 -41 -20 -13 0 -29 -9 -36 -20 -7 -11 -19 -20 -26 -20 -7 0 -45 -21 -85
-48 -40 -26 -85 -54 -102 -62 -16 -8 -32 -18 -35 -21 -11 -12 -129 -89 -138
-89 -4 0 -17 -8 -28 -18 -10 -10 -46 -31 -79 -46 -33 -16 -76 -43 -96 -60 -70
-60 -94 -76 -112 -76 -23 0 -56 -19 -88 -52 -15 -16 -32 -28 -38 -28 -6 0 -34
-18 -63 -40 -29 -22 -59 -40 -65 -40 -7 0 -13 -4 -13 -10 0 -5 -5 -10 -11 -10
-5 0 -37 -18 -69 -40 -32 -22 -64 -40 -69 -40 -6 0 -11 -4 -11 -10 0 -5 -6
-10 -12 -10 -7 0 -29 -14 -48 -31 -19 -16 -63 -44 -96 -60 -34 -17 -70 -39
-79 -50 -10 -10 -23 -19 -29 -19 -11 0 -82 -45 -126 -80 -14 -10 -53 -34 -87
-52 -35 -18 -63 -36 -63 -40 0 -5 -7 -8 -15 -8 -9 0 -76 -40 -150 -90 -74 -49
-137 -90 -140 -90 -4 0 -25 -13 -48 -28 -23 -15 -55 -34 -72 -42 -16 -8 -54
-36 -83 -62 -30 -27 -58 -48 -62 -48 -14 0 -122 -66 -155 -94 -16 -14 -36 -26
-42 -26 -7 0 -13 -4 -13 -10 0 -5 -6 -10 -13 -10 -26 0 -72 -29 -117 -75 -24
-25 -49 -45 -55 -45 -6 0 -22 -12 -36 -26 -13 -14 -38 -32 -55 -40 -17 -8 -55
-37 -85 -64 -30 -27 -58 -50 -62 -50 -4 0 -25 -16 -47 -36 -42 -39 -123 -84
-151 -84 -9 0 -19 6 -22 13 -8 23 -37 -14 -37 -47 0 -37 -49 -92 -73 -83 -13
5 -32 60 -28 80 1 5 -8 11 -19 14 -30 8 -25 32 6 30 34 -3 40 13 15 39 -26 28
-35 77 -20 105 6 13 17 44 24 70 12 46 12 48 -16 75 -16 15 -29 37 -29 49 0
22 -87 115 -107 115 -19 0 -27 21 -33 80 -4 47 -8 55 -26 58 -29 4 -141 -100
-151 -139 -10 -38 -27 -41 -31 -6 -2 15 -9 27 -18 27 -17 0 -19 19 -1 22 6 0
17 2 22 2 19 3 35 18 51 48 15 28 14 31 -5 49 -24 23 -26 30 -9 47 18 18 28
15 28 -8 0 -21 24 -28 35 -10 4 6 16 8 26 5 12 -4 31 0 46 10 25 17 26 16 64
-24 39 -40 80 -54 94 -31 8 13 42 13 50 0 7 -11 -10 -47 -37 -77 -20 -21 -20
-22 -1 -71 10 -27 21 -51 26 -53 4 -2 18 16 30 41 12 25 29 46 37 46 8 1 21 2
28 3 7 0 12 13 12 29 -1 37 10 82 29 114 34 56 105 155 136 188 18 19 58 73
90 120 32 47 66 94 76 105 36 40 149 201 149 212 0 5 16 32 35 62 19 29 35 61
35 71 0 9 7 23 15 30 8 6 17 22 21 33 9 33 74 160 90 178 8 8 14 24 14 33 0
23 28 112 46 148 8 14 14 45 14 68 0 43 26 136 41 146 16 9 10 44 -7 44 -13 0
-15 7 -10 38 23 137 25 167 8 180 -12 9 -13 15 -4 24 9 9 3 17 -23 35 -42 28
-59 29 -96 2 -41 -29 -38 -67 10 -144 17 -26 20 -50 20 -166 1 -75 -2 -139 -6
-142 -12 -13 -52 -141 -53 -169 0 -15 -4 -30 -10 -33 -5 -3 -10 -15 -10 -25 0
-11 -8 -34 -18 -52 -10 -18 -29 -58 -41 -88 -13 -30 -41 -83 -62 -118 -22 -35
-39 -68 -39 -73 0 -5 -16 -31 -35 -58 -19 -26 -35 -53 -35 -58 0 -5 -11 -20
-25 -33 -14 -13 -25 -28 -25 -33 0 -5 -20 -35 -45 -66 -25 -31 -92 -117 -150
-191 -58 -74 -117 -148 -130 -165 -13 -16 -34 -43 -46 -59 -20 -26 -26 -28
-63 -21 -23 4 -55 9 -73 12 -17 3 -44 18 -59 34 -30 32 -45 35 -74 17 -15 -10
-24 -9 -45 2 -14 8 -42 14 -63 14 -20 1 -45 6 -54 11 -19 12 -108 215 -108
248 0 23 -20 92 -40 142 -31 75 -28 62 -47 173 -3 18 -9 35 -14 38 -5 3 -9 15
-9 27 0 12 -11 54 -25 92 -13 39 -30 97 -36 129 -6 33 -19 77 -30 98 -10 20
-19 43 -19 49 0 28 -106 218 -150 269 -26 30 -59 79 -74 108 -15 29 -38 62
-51 74 -14 12 -25 27 -25 35 0 7 -22 37 -49 67 -27 29 -50 57 -52 62 -8 19
-126 114 -142 114 -9 0 -19 5 -22 10 -11 17 -54 11 -65 -10 -14 -27 -2 -68 24
-82 11 -6 40 -26 63 -44 23 -19 46 -34 51 -34 15 0 166 -171 207 -234 10 -17
24 -38 30 -47 5 -9 20 -35 33 -57 12 -23 35 -56 50 -74 29 -33 119 -218 143
-293 7 -22 18 -46 24 -54 5 -8 9 -22 7 -32 -2 -9 2 -20 8 -24 5 -3 10 -17 10
-30 0 -13 5 -27 10 -30 6 -3 10 -21 10 -39 0 -19 7 -39 15 -46 8 -7 12 -17 9
-22 -6 -9 13 -64 37 -110 5 -10 9 -27 9 -38 0 -10 9 -35 19 -54 11 -19 25 -72
32 -118 6 -45 18 -90 26 -100 8 -9 16 -22 17 -30 2 -7 6 -31 11 -53 4 -22 13
-47 20 -55 7 -8 19 -34 26 -58 12 -40 11 -44 -14 -70 -27 -29 -44 -92 -31
-114 14 -22 13 -42 -3 -60 -8 -9 -12 -22 -8 -28 4 -6 -24 -43 -63 -85 -39 -40
-72 -84 -74 -97 -2 -18 -10 -24 -36 -26 -18 -2 -36 -10 -39 -18 -3 -8 -21 -21
-39 -30 -32 -15 -36 -15 -54 1 -11 10 -17 21 -15 26 3 4 -15 33 -40 63 -25 31
-62 82 -82 114 -20 31 -44 62 -53 69 -22 16 -303 328 -368 409 -27 34 -68 81
-93 105 -24 25 -66 71 -94 103 -27 31 -82 92 -121 134 -39 42 -78 88 -87 102
-20 30 -134 155 -277 305 -58 60 -123 130 -144 155 -44 52 -571 595 -601 619
-20 17 -72 69 -163 165 -43 46 -307 236 -327 236 -10 0 -129 82 -145 100 -8 9
-44 36 -79 60 -35 23 -71 49 -80 56 -48 39 -140 104 -147 104 -5 0 -25 14 -44
30 -19 16 -41 30 -47 30 -7 0 -13 5 -13 10 0 6 -8 10 -17 10 -9 0 -38 18 -64
40 -26 22 -51 40 -56 40 -4 0 -32 18 -61 40 -29 22 -57 40 -62 40 -12 0 -58
26 -139 79 -35 22 -72 41 -83 41 -10 0 -18 4 -18 9 0 8 -120 71 -135 71 -4 0
-19 8 -33 18 -15 10 -43 24 -62 31 -19 8 -49 20 -67 27 -17 8 -45 17 -62 20
-16 4 -39 15 -50 25 -11 11 -27 19 -36 19 -8 0 -15 5 -15 10 0 6 -7 10 -15 10
-14 0 -53 18 -65 30 -7 7 -113 57 -220 103 -14 6 -37 19 -52 29 -14 10 -32 18
-40 18 -7 0 -50 18 -95 40 -46 22 -104 45 -130 50 -27 6 -76 24 -110 40 -34
17 -69 30 -77 30 -20 0 -66 20 -95 42 -16 13 -42 18 -82 18 -33 0 -59 4 -59
10 0 6 -30 10 -70 10 -40 0 -70 4 -70 10 0 6 -9 10 -20 10 -11 0 -20 5 -20 10
0 13 -237 14 -245 1 -3 -6 -18 -6 -38 0 -36 10 -42 10 -112 -2z m8145 -7288
c0 -22 5 -41 13 -44 6 -2 9 -8 5 -12 -4 -4 -14 -2 -23 5 -17 14 -21 90 -5 90
6 0 10 -18 10 -39z m95 -92 c4 -6 -2 -21 -14 -33 -12 -12 -21 -30 -21 -39 0
-9 -4 -17 -10 -17 -5 0 -10 14 -10 30 0 24 4 30 22 30 17 0 19 3 10 12 -7 7
-12 16 -12 20 0 12 28 10 35 -3z m338 -101 c2 -7 -5 -28 -15 -46 -10 -18 -18
-39 -18 -47 0 -8 -4 -15 -10 -15 -5 0 -10 13 -10 29 0 17 5 33 10 36 6 3 10
17 10 31 0 25 25 34 33 12z m-613 -378 c0 -5 -4 -10 -10 -10 -5 0 -10 5 -10
10 0 6 5 10 10 10 6 0 10 -4 10 -10z m318 -2 c9 -9 17 -9 36 1 24 13 46 9 46
-9 0 -5 -17 -17 -37 -27 -21 -9 -40 -20 -43 -24 -3 -3 -20 -14 -38 -23 -34
-17 -142 -122 -142 -137 0 -5 -4 -9 -10 -9 -15 0 -12 63 5 96 8 16 28 43 45
59 25 24 33 27 40 15 5 -8 12 -11 17 -7 4 5 1 12 -7 17 -17 10 -8 24 32 45 30
17 41 18 56 3z m-4098 -257 c-6 -12 -16 -19 -21 -15 -6 4 -4 13 7 25 21 24 29
18 14 -10z m3760 -201 c0 -5 -4 -10 -10 -10 -5 0 -10 -11 -10 -24 0 -14 -4
-28 -10 -31 -5 -3 -10 -19 -10 -36 0 -36 -11 -37 -27 -2 -18 38 -17 43 19 80
32 34 48 41 48 23z m-80 -214 c0 -3 -4 -8 -10 -11 -5 -3 -10 -1 -10 4 0 6 5
11 10 11 6 0 10 -2 10 -4z m-50 -25 c0 -5 -12 -23 -26 -40 -21 -25 -33 -31
-65 -31 -21 0 -39 3 -39 8 0 8 90 52 108 52 7 0 12 5 12 10 0 6 2 10 5 10 3 0
5 -4 5 -9z m-470 -161 c0 -5 -8 -10 -17 -10 -9 0 -32 -14 -50 -32 -18 -18 -33
-27 -33 -20 0 7 5 12 10 12 6 0 10 8 10 18 0 10 5 23 12 30 14 14 68 16 68 2z
m-1190 -1065 c-13 -14 -26 -23 -28 -20 -3 3 5 16 18 30 13 14 26 23 28 20 3
-3 -5 -16 -18 -30z"/>
<path d="M8930 4810 c0 -5 5 -10 10 -10 6 0 10 5 10 10 0 6 -4 10 -10 10 -5 0
-10 -4 -10 -10z"/>
<path d="M12710 10440 c0 -22 5 -40 10 -40 6 0 10 18 10 40 0 22 -4 40 -10 40
-5 0 -10 -18 -10 -40z"/>
<path d="M4888 4514 c-5 -4 -8 -17 -8 -28 0 -12 -7 -34 -15 -50 -20 -37 -20
-67 0 -60 8 4 15 18 15 33 0 15 5 32 11 38 6 6 9 25 7 43 -2 17 -6 28 -10 24z"/>
<path d="M7690 3310 c0 -5 5 -10 10 -10 6 0 10 5 10 10 0 6 -4 10 -10 10 -5 0
-10 -4 -10 -10z"/>
</g>
</svg>
