<?xml version="1.0" standalone="no"?>
<!DOCTYPE svg PUBLIC "-//W3C//DTD SVG 20010904//EN"
 "http://www.w3.org/TR/2001/REC-SVG-20010904/DTD/svg10.dtd">
<svg version="1.0" xmlns="http://www.w3.org/2000/svg"
 width="1280.000000pt" height="875.000000pt" viewBox="0 0 1280.000000 875.000000"
 preserveAspectRatio="xMidYMid meet">
<metadata>
Created by potrace 1.15, written by Peter Selinger 2001-2017
</metadata>
<g transform="translate(0.000000,875.000000) scale(0.100000,-0.100000)"
fill="#000000" stroke="none">
<path d="M10130 8481 c-8 -5 -39 -12 -67 -16 -42 -5 -57 -13 -73 -35 -25 -35
-90 -66 -174 -81 -57 -11 -74 -10 -120 4 -80 26 -105 22 -147 -19 l-38 -37
-41 17 c-22 9 -58 16 -80 16 -35 0 -43 -5 -72 -45 -18 -24 -38 -44 -44 -45 -6
0 -35 14 -65 30 -389 216 -964 42 -1139 -345 -41 -90 -63 -203 -58 -295 4 -76
4 -79 -19 -84 -59 -15 -139 15 -257 99 -53 39 -77 43 -100 19 -20 -20 -20 -51
0 -110 8 -25 13 -49 9 -52 -9 -9 -93 35 -188 100 -94 64 -174 98 -231 98 -44
0 -49 -15 -24 -73 12 -26 18 -50 16 -53 -3 -3 -39 15 -79 40 -113 68 -311 126
-489 142 -30 3 -65 7 -78 10 -17 3 -29 -2 -43 -19 -36 -47 -89 -59 -264 -61
-160 -3 -186 -7 -227 -44 -28 -23 -22 -42 12 -42 34 0 38 -10 13 -32 -23 -20
-46 -25 -179 -43 -120 -16 -179 -33 -234 -68 -31 -19 -48 -22 -140 -21 -212 2
-322 34 -605 179 l-165 85 -33 -18 c-47 -27 -48 -62 -3 -97 20 -15 36 -34 36
-42 0 -21 -85 -11 -238 28 -292 75 -382 85 -478 52 l-49 -17 38 -14 c20 -8 37
-19 37 -23 0 -5 -16 -15 -35 -23 -31 -13 -43 -13 -107 0 -91 20 -443 14 -588
-10 -184 -30 -383 -96 -350 -116 12 -7 11 -12 -4 -29 -10 -11 -28 -23 -40 -27
-11 -4 -43 -24 -70 -45 -35 -28 -58 -39 -83 -39 -77 0 -181 -37 -377 -132
-111 -54 -203 -104 -205 -110 -2 -7 -12 -23 -23 -35 -21 -22 -17 -43 8 -43 21
0 17 -10 -20 -59 -32 -42 -38 -45 -127 -68 -113 -28 -211 -74 -234 -109 -22
-34 -14 -40 36 -25 22 7 43 10 45 8 10 -10 -9 -34 -39 -52 -60 -35 -291 -198
-412 -290 -133 -102 -269 -239 -346 -348 -56 -80 -130 -220 -149 -283 -8 -27
-35 -65 -77 -109 -107 -113 -174 -202 -219 -292 -24 -48 -42 -88 -40 -91 8 -7
61 26 89 56 27 28 30 29 58 15 57 -29 52 -52 -55 -233 -99 -166 -117 -247 -72
-309 l25 -33 16 31 c8 17 19 31 23 31 4 0 14 -21 21 -46 10 -34 11 -51 2 -67
-31 -62 -41 -143 -41 -352 0 -198 2 -214 25 -284 89 -261 143 -566 145 -813 2
-181 -18 -246 -144 -478 -142 -260 -149 -280 -97 -280 17 0 32 -4 35 -9 3 -4
-2 -35 -11 -67 -17 -63 -24 -322 -11 -419 27 -209 111 -454 230 -675 58 -108
131 -225 147 -234 6 -4 28 2 50 14 69 35 74 33 239 -85 60 -43 67 -45 130 -45
76 0 87 -6 170 -82 58 -55 161 -106 324 -163 104 -37 264 -80 328 -89 19 -2
56 -8 81 -11 35 -5 74 1 167 26 138 36 173 34 235 -20 71 -61 110 -81 159 -81
58 0 61 11 23 100 -39 92 -37 97 41 106 109 11 176 -1 304 -56 64 -28 120 -50
123 -50 4 0 7 17 7 38 0 44 -29 90 -104 162 -90 86 -47 93 154 22 47 -16 109
-33 138 -36 49 -6 52 -6 52 16 0 33 -46 126 -78 158 -15 15 -56 50 -92 78
l-66 51 4 98 c2 55 9 103 15 110 9 9 23 10 52 3 50 -12 116 -12 134 -1 10 6
11 21 6 60 l-7 51 30 0 c49 0 165 -44 272 -104 55 -31 105 -56 110 -56 6 0 10
26 10 58 0 64 -21 106 -98 195 -60 69 -57 76 23 57 22 -5 97 -14 167 -20 70
-6 148 -17 173 -24 25 -8 47 -11 49 -7 3 4 -5 30 -18 57 -28 58 -81 103 -174
146 -37 18 -77 38 -88 45 l-21 14 23 57 c47 115 41 221 -20 347 -32 65 -61
107 -272 385 -101 133 -159 249 -181 358 -9 49 -12 86 -7 91 5 5 72 0 149 -10
77 -10 167 -21 200 -24 104 -9 289 -25 320 -28 26 -2 34 -10 62 -69 l33 -68
72 1 c40 1 87 4 103 8 27 6 31 3 41 -23 20 -56 25 -56 282 28 l239 79 32 -24
c49 -36 110 -120 131 -183 36 -100 25 -227 -29 -366 -24 -59 -31 -76 -114
-250 -71 -150 -87 -187 -79 -194 10 -11 44 -6 72 10 50 30 59 16 45 -68 -7
-40 -25 -113 -38 -163 -55 -197 -55 -223 0 -420 112 -397 320 -675 606 -810
169 -81 346 -109 532 -86 115 14 183 0 337 -67 62 -28 133 -56 158 -63 25 -7
49 -16 55 -21 5 -4 32 -8 60 -8 39 0 53 4 62 20 11 16 9 25 -8 54 -11 20 -19
43 -17 53 4 21 44 21 173 0 197 -33 273 -33 316 2 31 25 14 50 -72 112 -79 58
-99 84 -70 94 10 3 26 14 36 25 24 27 46 25 155 -10 105 -35 192 -47 233 -31
21 8 27 17 27 41 0 17 -6 43 -14 58 -14 25 -32 40 -166 131 l-55 37 3 92 c5
125 -12 175 -85 246 -31 30 -108 85 -171 123 -181 106 -246 167 -279 263 -15
42 -17 156 -3 165 19 12 67 119 110 245 42 124 68 185 75 178 53 -46 164 -165
190 -203 l34 -50 -31 -85 c-27 -75 -31 -98 -31 -190 -1 -99 1 -109 32 -170
122 -242 473 -360 1069 -360 179 0 190 -1 208 -21 27 -30 91 -65 157 -88 60
-21 233 -45 250 -34 5 3 6 31 2 67 l-6 63 54 13 c62 15 148 10 307 -15 114
-18 215 -14 238 9 18 17 4 45 -46 98 -22 23 -32 42 -29 52 5 13 24 9 129 -28
68 -24 160 -59 206 -76 45 -18 85 -30 89 -26 16 15 9 122 -10 169 -25 61 -121
151 -209 196 l-66 33 -7 70 c-18 192 -133 315 -335 362 -112 26 -217 121 -260
234 -37 98 -36 198 5 467 29 186 36 292 26 383 -5 48 -12 96 -15 107 -20 80
-20 83 8 78 36 -7 72 4 96 29 21 23 27 58 10 58 -17 0 -137 126 -179 189 -72
105 -118 220 -163 401 -21 86 -18 399 5 473 10 31 22 57 27 57 6 0 10 -4 10
-9 0 -16 30 -41 48 -41 9 0 30 21 47 47 16 26 60 85 97 130 77 93 153 202 162
230 3 10 20 26 36 35 30 17 31 17 40 -7 12 -33 20 -32 56 7 30 32 49 60 94
143 33 60 69 105 85 105 8 0 19 -9 25 -20 6 -11 14 -20 19 -20 15 0 33 84 35
165 2 62 11 106 36 183 30 89 37 102 57 102 35 0 115 33 169 71 27 18 101 83
164 143 149 141 206 171 330 171 102 -1 139 -15 272 -108 132 -91 184 -112
283 -112 73 1 86 4 145 37 71 39 113 54 175 62 228 31 276 47 339 112 48 50
50 73 10 131 -32 47 -32 83 -1 83 13 0 49 5 80 11 54 11 57 14 110 88 83 116
96 148 158 386 11 42 5 174 -8 184 -4 3 -21 32 -37 64 -48 96 -136 163 -381
293 -138 72 -196 117 -263 200 -28 35 -32 47 -31 95 1 32 -5 67 -14 85 -17 33
-119 136 -163 165 -36 23 -101 95 -121 133 -15 29 -14 59 6 146 13 59 -6 135
-64 256 -75 156 -218 279 -375 324 -25 7 -58 16 -74 21 -37 11 -226 11 -246 0z"/>
</g>
</svg>
